<mxfile host="Electron" modified="2024-05-23T11:00:16.417Z" agent="Mozilla/5.0 (Windows NT 10.0; Win64; x64) AppleWebKit/537.36 (KHTML, like Gecko) draw.io/22.0.3 Chrome/114.0.5735.289 Electron/25.8.4 Safari/537.36" etag="aWeBqkuD5syM58TEK4dm" version="22.0.3" type="device" pages="2">
  <diagram name="Page-1" id="GtxulIuv0ZJrvPJFxxnx">
    <mxGraphModel dx="344" dy="209" grid="1" gridSize="10" guides="1" tooltips="1" connect="1" arrows="1" fold="1" page="1" pageScale="1" pageWidth="850" pageHeight="1100" math="0" shadow="0">
      <root>
        <mxCell id="0" />
        <mxCell id="1" parent="0" />
        <mxCell id="1n4ieiYLsxgarFRJK7ya-1" value="bucketSort()" style="rounded=1;whiteSpace=wrap;html=1;" vertex="1" parent="1">
          <mxGeometry x="340" y="50" width="120" height="40" as="geometry" />
        </mxCell>
        <mxCell id="1n4ieiYLsxgarFRJK7ya-2" value="" style="endArrow=classic;html=1;rounded=0;exitX=0.5;exitY=1;exitDx=0;exitDy=0;" edge="1" parent="1" source="1n4ieiYLsxgarFRJK7ya-1">
          <mxGeometry width="50" height="50" relative="1" as="geometry">
            <mxPoint x="350" y="180" as="sourcePoint" />
            <mxPoint x="400" y="120" as="targetPoint" />
          </mxGeometry>
        </mxCell>
        <mxCell id="1n4ieiYLsxgarFRJK7ya-3" value="&lt;div style=&quot;border-color: var(--border-color); font-family: &amp;quot;Times New Roman&amp;quot;; line-height: 12px; font-size: 13px;&quot;&gt;&lt;font style=&quot;border-color: var(--border-color); font-size: 13px;&quot;&gt;Ініціалізація і обрахунок min_Value,&lt;/font&gt;&lt;/div&gt;&lt;div style=&quot;border-color: var(--border-color); font-family: &amp;quot;Times New Roman&amp;quot;; line-height: 12px; font-size: 13px;&quot;&gt;&lt;font style=&quot;border-color: var(--border-color); font-size: 13px;&quot;&gt;max_Value;&lt;/font&gt;&lt;/div&gt;" style="rounded=0;whiteSpace=wrap;html=1;" vertex="1" parent="1">
          <mxGeometry x="260" y="240" width="120" height="80" as="geometry" />
        </mxCell>
        <mxCell id="1n4ieiYLsxgarFRJK7ya-8" style="edgeStyle=orthogonalEdgeStyle;rounded=0;orthogonalLoop=1;jettySize=auto;html=1;entryX=0.5;entryY=0;entryDx=0;entryDy=0;exitX=0;exitY=0.5;exitDx=0;exitDy=0;" edge="1" parent="1" source="1n4ieiYLsxgarFRJK7ya-5" target="1n4ieiYLsxgarFRJK7ya-3">
          <mxGeometry relative="1" as="geometry">
            <mxPoint x="320" y="230" as="targetPoint" />
          </mxGeometry>
        </mxCell>
        <mxCell id="1n4ieiYLsxgarFRJK7ya-10" value="False" style="edgeLabel;html=1;align=center;verticalAlign=middle;resizable=0;points=[];" vertex="1" connectable="0" parent="1n4ieiYLsxgarFRJK7ya-8">
          <mxGeometry x="0.0573" y="-3" relative="1" as="geometry">
            <mxPoint x="3" y="7" as="offset" />
          </mxGeometry>
        </mxCell>
        <mxCell id="1n4ieiYLsxgarFRJK7ya-5" value="&lt;font style=&quot;font-size: 11px;&quot;&gt;arr.empty()&lt;/font&gt;" style="rhombus;whiteSpace=wrap;html=1;" vertex="1" parent="1">
          <mxGeometry x="340" y="120" width="120" height="80" as="geometry" />
        </mxCell>
        <mxCell id="1n4ieiYLsxgarFRJK7ya-11" value="" style="endArrow=classic;html=1;rounded=0;exitX=1;exitY=0.5;exitDx=0;exitDy=0;entryX=0.5;entryY=0;entryDx=0;entryDy=0;" edge="1" parent="1" source="1n4ieiYLsxgarFRJK7ya-5" target="0-3T1NVrwAwvUGqEx9bb-3">
          <mxGeometry width="50" height="50" relative="1" as="geometry">
            <mxPoint x="530" y="290" as="sourcePoint" />
            <mxPoint x="480" y="240" as="targetPoint" />
            <Array as="points">
              <mxPoint x="485" y="160" />
            </Array>
          </mxGeometry>
        </mxCell>
        <mxCell id="1n4ieiYLsxgarFRJK7ya-34" value="True" style="edgeLabel;html=1;align=center;verticalAlign=middle;resizable=0;points=[];" vertex="1" connectable="0" parent="1n4ieiYLsxgarFRJK7ya-11">
          <mxGeometry x="0.2038" y="1" relative="1" as="geometry">
            <mxPoint as="offset" />
          </mxGeometry>
        </mxCell>
        <mxCell id="1n4ieiYLsxgarFRJK7ya-13" value="" style="endArrow=classic;html=1;rounded=0;exitX=0.5;exitY=1;exitDx=0;exitDy=0;" edge="1" parent="1" source="1n4ieiYLsxgarFRJK7ya-3">
          <mxGeometry width="50" height="50" relative="1" as="geometry">
            <mxPoint x="300" y="440" as="sourcePoint" />
            <mxPoint x="320" y="360" as="targetPoint" />
          </mxGeometry>
        </mxCell>
        <mxCell id="1n4ieiYLsxgarFRJK7ya-14" value="&amp;nbsp;size_t bucketCount = arr.size();" style="rounded=0;whiteSpace=wrap;html=1;" vertex="1" parent="1">
          <mxGeometry x="260" y="360" width="120" height="80" as="geometry" />
        </mxCell>
        <mxCell id="1n4ieiYLsxgarFRJK7ya-15" value="" style="endArrow=classic;html=1;rounded=0;exitX=0.5;exitY=1;exitDx=0;exitDy=0;" edge="1" parent="1" source="1n4ieiYLsxgarFRJK7ya-14">
          <mxGeometry width="50" height="50" relative="1" as="geometry">
            <mxPoint x="300" y="540" as="sourcePoint" />
            <mxPoint x="320" y="480" as="targetPoint" />
          </mxGeometry>
        </mxCell>
        <mxCell id="1n4ieiYLsxgarFRJK7ya-16" value="&lt;font style=&quot;font-size: 11px;&quot;&gt;vector&amp;lt;std::vector&amp;lt;T&amp;gt;&amp;gt; buckets(bucketCount);&lt;/font&gt;" style="rounded=0;whiteSpace=wrap;html=1;" vertex="1" parent="1">
          <mxGeometry x="260" y="480" width="120" height="80" as="geometry" />
        </mxCell>
        <mxCell id="1n4ieiYLsxgarFRJK7ya-17" value="" style="endArrow=classic;html=1;rounded=0;exitX=0.5;exitY=1;exitDx=0;exitDy=0;" edge="1" parent="1" source="1n4ieiYLsxgarFRJK7ya-16">
          <mxGeometry width="50" height="50" relative="1" as="geometry">
            <mxPoint x="300" y="660" as="sourcePoint" />
            <mxPoint x="320" y="600" as="targetPoint" />
          </mxGeometry>
        </mxCell>
        <mxCell id="1n4ieiYLsxgarFRJK7ya-18" value="&amp;nbsp;T range = maxValue - minValue;" style="rounded=0;whiteSpace=wrap;html=1;" vertex="1" parent="1">
          <mxGeometry x="260" y="600" width="120" height="80" as="geometry" />
        </mxCell>
        <mxCell id="1n4ieiYLsxgarFRJK7ya-19" value="" style="endArrow=classic;html=1;rounded=0;exitX=0.5;exitY=1;exitDx=0;exitDy=0;" edge="1" parent="1" source="1n4ieiYLsxgarFRJK7ya-18">
          <mxGeometry width="50" height="50" relative="1" as="geometry">
            <mxPoint x="310" y="780" as="sourcePoint" />
            <mxPoint x="320" y="720" as="targetPoint" />
          </mxGeometry>
        </mxCell>
        <mxCell id="1n4ieiYLsxgarFRJK7ya-20" value="" style="ellipse;whiteSpace=wrap;html=1;aspect=fixed;" vertex="1" parent="1">
          <mxGeometry x="305" y="720" width="30" height="30" as="geometry" />
        </mxCell>
        <mxCell id="1n4ieiYLsxgarFRJK7ya-27" style="edgeStyle=orthogonalEdgeStyle;rounded=0;orthogonalLoop=1;jettySize=auto;html=1;entryX=0.5;entryY=0;entryDx=0;entryDy=0;" edge="1" parent="1" source="1n4ieiYLsxgarFRJK7ya-21" target="1n4ieiYLsxgarFRJK7ya-26">
          <mxGeometry relative="1" as="geometry" />
        </mxCell>
        <mxCell id="1n4ieiYLsxgarFRJK7ya-21" value="" style="ellipse;whiteSpace=wrap;html=1;aspect=fixed;" vertex="1" parent="1">
          <mxGeometry x="705" y="50" width="30" height="30" as="geometry" />
        </mxCell>
        <mxCell id="1n4ieiYLsxgarFRJK7ya-26" value="&amp;nbsp;range == 0" style="rhombus;whiteSpace=wrap;html=1;" vertex="1" parent="1">
          <mxGeometry x="660" y="120" width="120" height="80" as="geometry" />
        </mxCell>
        <mxCell id="1n4ieiYLsxgarFRJK7ya-28" value="" style="endArrow=classic;html=1;rounded=0;" edge="1" parent="1">
          <mxGeometry width="50" height="50" relative="1" as="geometry">
            <mxPoint x="780" y="160" as="sourcePoint" />
            <mxPoint x="800" y="240" as="targetPoint" />
            <Array as="points">
              <mxPoint x="800" y="160" />
            </Array>
          </mxGeometry>
        </mxCell>
        <mxCell id="1n4ieiYLsxgarFRJK7ya-32" value="True" style="edgeLabel;html=1;align=center;verticalAlign=middle;resizable=0;points=[];" vertex="1" connectable="0" parent="1n4ieiYLsxgarFRJK7ya-28">
          <mxGeometry x="0.1657" relative="1" as="geometry">
            <mxPoint as="offset" />
          </mxGeometry>
        </mxCell>
        <mxCell id="1n4ieiYLsxgarFRJK7ya-29" value="" style="endArrow=classic;html=1;rounded=0;exitX=0;exitY=0.5;exitDx=0;exitDy=0;entryX=0.5;entryY=0;entryDx=0;entryDy=0;" edge="1" parent="1" source="1n4ieiYLsxgarFRJK7ya-26">
          <mxGeometry width="50" height="50" relative="1" as="geometry">
            <mxPoint x="600" y="340" as="sourcePoint" />
            <mxPoint x="720" y="360" as="targetPoint" />
            <Array as="points">
              <mxPoint x="640" y="160" />
              <mxPoint x="640" y="340" />
              <mxPoint x="720" y="340" />
            </Array>
          </mxGeometry>
        </mxCell>
        <mxCell id="1n4ieiYLsxgarFRJK7ya-33" value="False" style="edgeLabel;html=1;align=center;verticalAlign=middle;resizable=0;points=[];" vertex="1" connectable="0" parent="1n4ieiYLsxgarFRJK7ya-29">
          <mxGeometry x="0.1657" y="-2" relative="1" as="geometry">
            <mxPoint x="2" y="-122" as="offset" />
          </mxGeometry>
        </mxCell>
        <mxCell id="1n4ieiYLsxgarFRJK7ya-37" style="edgeStyle=orthogonalEdgeStyle;rounded=0;orthogonalLoop=1;jettySize=auto;html=1;entryX=0.5;entryY=0;entryDx=0;entryDy=0;" edge="1" parent="1" source="1n4ieiYLsxgarFRJK7ya-35">
          <mxGeometry relative="1" as="geometry">
            <mxPoint x="720" y="360" as="targetPoint" />
            <Array as="points">
              <mxPoint x="800" y="340" />
              <mxPoint x="720" y="340" />
              <mxPoint x="721" y="360" />
            </Array>
          </mxGeometry>
        </mxCell>
        <mxCell id="1n4ieiYLsxgarFRJK7ya-35" value="range = 1;" style="rounded=0;whiteSpace=wrap;html=1;" vertex="1" parent="1">
          <mxGeometry x="740" y="240" width="120" height="80" as="geometry" />
        </mxCell>
        <mxCell id="1n4ieiYLsxgarFRJK7ya-47" style="edgeStyle=orthogonalEdgeStyle;rounded=0;orthogonalLoop=1;jettySize=auto;html=1;entryX=0.5;entryY=0;entryDx=0;entryDy=0;exitX=1;exitY=0.5;exitDx=0;exitDy=0;" edge="1" parent="1" source="1n4ieiYLsxgarFRJK7ya-39">
          <mxGeometry relative="1" as="geometry">
            <mxPoint x="720" y="720" as="targetPoint" />
            <Array as="points">
              <mxPoint x="800" y="380" />
              <mxPoint x="800" y="700" />
              <mxPoint x="720" y="700" />
            </Array>
          </mxGeometry>
        </mxCell>
        <mxCell id="1n4ieiYLsxgarFRJK7ya-39" value="size_t i = 0;&lt;br&gt;&amp;nbsp;i &amp;lt; arr.size(); ++i" style="shape=hexagon;perimeter=hexagonPerimeter2;whiteSpace=wrap;html=1;fixedSize=1;" vertex="1" parent="1">
          <mxGeometry x="660" y="360" width="120" height="40" as="geometry" />
        </mxCell>
        <mxCell id="1n4ieiYLsxgarFRJK7ya-40" value="" style="endArrow=classic;html=1;rounded=0;exitX=0.5;exitY=1;exitDx=0;exitDy=0;" edge="1" parent="1" source="1n4ieiYLsxgarFRJK7ya-39">
          <mxGeometry width="50" height="50" relative="1" as="geometry">
            <mxPoint x="670" y="530" as="sourcePoint" />
            <mxPoint x="720" y="440" as="targetPoint" />
          </mxGeometry>
        </mxCell>
        <mxCell id="1n4ieiYLsxgarFRJK7ya-41" value="size_t bucketIndex = static_cast&amp;lt;size_t&amp;gt;((arr[i] - minValue) * (bucketCount - 1) / range);&amp;nbsp;" style="rounded=0;whiteSpace=wrap;html=1;" vertex="1" parent="1">
          <mxGeometry x="660" y="440" width="120" height="80" as="geometry" />
        </mxCell>
        <mxCell id="1n4ieiYLsxgarFRJK7ya-42" value="" style="endArrow=classic;html=1;rounded=0;exitX=0.5;exitY=1;exitDx=0;exitDy=0;" edge="1" parent="1" source="1n4ieiYLsxgarFRJK7ya-41">
          <mxGeometry width="50" height="50" relative="1" as="geometry">
            <mxPoint x="690" y="630" as="sourcePoint" />
            <mxPoint x="720" y="560" as="targetPoint" />
          </mxGeometry>
        </mxCell>
        <mxCell id="1n4ieiYLsxgarFRJK7ya-43" value="buckets[bucketIndex]&lt;br&gt;.push_back(arr[i]);" style="rounded=0;whiteSpace=wrap;html=1;" vertex="1" parent="1">
          <mxGeometry x="660" y="560" width="120" height="80" as="geometry" />
        </mxCell>
        <mxCell id="1n4ieiYLsxgarFRJK7ya-44" value="" style="endArrow=classic;html=1;rounded=0;exitX=0.5;exitY=1;exitDx=0;exitDy=0;entryX=0;entryY=0.5;entryDx=0;entryDy=0;" edge="1" parent="1" source="1n4ieiYLsxgarFRJK7ya-43" target="1n4ieiYLsxgarFRJK7ya-39">
          <mxGeometry width="50" height="50" relative="1" as="geometry">
            <mxPoint x="700" y="740" as="sourcePoint" />
            <mxPoint x="650" y="410" as="targetPoint" />
            <Array as="points">
              <mxPoint x="720" y="680" />
              <mxPoint x="640" y="680" />
              <mxPoint x="640" y="380" />
            </Array>
          </mxGeometry>
        </mxCell>
        <mxCell id="1n4ieiYLsxgarFRJK7ya-48" value="1" style="shape=offPageConnector;whiteSpace=wrap;html=1;" vertex="1" parent="1">
          <mxGeometry x="705" y="720" width="30" height="30" as="geometry" />
        </mxCell>
        <mxCell id="0-3T1NVrwAwvUGqEx9bb-3" value="2" style="shape=offPageConnector;whiteSpace=wrap;html=1;size=0.3333333333333333;" vertex="1" parent="1">
          <mxGeometry x="470" y="240" width="30" height="30" as="geometry" />
        </mxCell>
      </root>
    </mxGraphModel>
  </diagram>
  <diagram id="NzFH4e6ftkF66xoSdwfb" name="Page-2">
    <mxGraphModel dx="1400" dy="851" grid="1" gridSize="10" guides="1" tooltips="1" connect="1" arrows="1" fold="1" page="1" pageScale="1" pageWidth="850" pageHeight="1100" math="0" shadow="0">
      <root>
        <mxCell id="0" />
        <mxCell id="1" parent="0" />
        <mxCell id="4eLtIL_VvIKtKYUzh_sT-4" style="edgeStyle=orthogonalEdgeStyle;rounded=0;orthogonalLoop=1;jettySize=auto;html=1;entryX=0.5;entryY=0;entryDx=0;entryDy=0;" edge="1" parent="1" source="4eLtIL_VvIKtKYUzh_sT-1" target="4eLtIL_VvIKtKYUzh_sT-3">
          <mxGeometry relative="1" as="geometry" />
        </mxCell>
        <mxCell id="4eLtIL_VvIKtKYUzh_sT-1" value="1" style="shape=offPageConnector;whiteSpace=wrap;html=1;" vertex="1" parent="1">
          <mxGeometry x="305" width="30" height="30" as="geometry" />
        </mxCell>
        <mxCell id="4eLtIL_VvIKtKYUzh_sT-3" value="size_t index = 0;" style="rounded=0;whiteSpace=wrap;html=1;" vertex="1" parent="1">
          <mxGeometry x="260" y="70" width="120" height="80" as="geometry" />
        </mxCell>
        <mxCell id="4eLtIL_VvIKtKYUzh_sT-5" value="" style="endArrow=classic;html=1;rounded=0;exitX=0.5;exitY=1;exitDx=0;exitDy=0;" edge="1" parent="1" source="4eLtIL_VvIKtKYUzh_sT-3">
          <mxGeometry width="50" height="50" relative="1" as="geometry">
            <mxPoint x="310" y="270" as="sourcePoint" />
            <mxPoint x="320" y="190" as="targetPoint" />
          </mxGeometry>
        </mxCell>
        <mxCell id="uuhoOP7kaAulzKjO-Wya-1" value="size_t i = 0; i &amp;lt; bucketCount; ++i" style="shape=hexagon;perimeter=hexagonPerimeter2;whiteSpace=wrap;html=1;fixedSize=1;" vertex="1" parent="1">
          <mxGeometry x="260" y="190" width="120" height="40" as="geometry" />
        </mxCell>
        <mxCell id="uuhoOP7kaAulzKjO-Wya-2" value="" style="endArrow=classic;html=1;rounded=0;exitX=0.5;exitY=1;exitDx=0;exitDy=0;" edge="1" parent="1" source="uuhoOP7kaAulzKjO-Wya-1">
          <mxGeometry width="50" height="50" relative="1" as="geometry">
            <mxPoint x="330" y="360" as="sourcePoint" />
            <mxPoint x="320" y="270" as="targetPoint" />
          </mxGeometry>
        </mxCell>
        <mxCell id="uuhoOP7kaAulzKjO-Wya-7" style="edgeStyle=orthogonalEdgeStyle;rounded=0;orthogonalLoop=1;jettySize=auto;html=1;" edge="1" parent="1" source="uuhoOP7kaAulzKjO-Wya-5">
          <mxGeometry relative="1" as="geometry">
            <mxPoint x="320" y="350" as="targetPoint" />
          </mxGeometry>
        </mxCell>
        <mxCell id="uuhoOP7kaAulzKjO-Wya-5" value="size_t j = 1; j &amp;lt; buckets[i].size();&lt;br&gt;&amp;nbsp;++j" style="shape=hexagon;perimeter=hexagonPerimeter2;whiteSpace=wrap;html=1;fixedSize=1;" vertex="1" parent="1">
          <mxGeometry x="260" y="270" width="120" height="40" as="geometry" />
        </mxCell>
        <mxCell id="uuhoOP7kaAulzKjO-Wya-6" value="&lt;div&gt;T key = buckets[i][j];&lt;/div&gt;&lt;div&gt;&lt;span style=&quot;background-color: initial;&quot;&gt;int k = j - 1;&lt;/span&gt;&lt;/div&gt;" style="rounded=0;whiteSpace=wrap;html=1;align=center;" vertex="1" parent="1">
          <mxGeometry x="260" y="350" width="120" height="80" as="geometry" />
        </mxCell>
        <mxCell id="uuhoOP7kaAulzKjO-Wya-8" value="" style="endArrow=classic;html=1;rounded=0;exitX=0.5;exitY=1;exitDx=0;exitDy=0;entryX=0.5;entryY=0;entryDx=0;entryDy=0;" edge="1" parent="1" source="uuhoOP7kaAulzKjO-Wya-6" target="uuhoOP7kaAulzKjO-Wya-9">
          <mxGeometry width="50" height="50" relative="1" as="geometry">
            <mxPoint x="330" y="610" as="sourcePoint" />
            <mxPoint x="320" y="490" as="targetPoint" />
          </mxGeometry>
        </mxCell>
        <mxCell id="uuhoOP7kaAulzKjO-Wya-9" value="&lt;font style=&quot;font-size: 12px;&quot;&gt;k &amp;gt;= 0 &amp;amp;&amp;amp;&lt;br&gt;&amp;nbsp;buckets[i][k] &amp;gt; key&lt;br&gt;&lt;br&gt;&lt;/font&gt;" style="rhombus;whiteSpace=wrap;html=1;" vertex="1" parent="1">
          <mxGeometry x="260" y="470" width="120" height="80" as="geometry" />
        </mxCell>
        <mxCell id="uuhoOP7kaAulzKjO-Wya-10" value="" style="endArrow=classic;html=1;rounded=0;exitX=0.5;exitY=1;exitDx=0;exitDy=0;entryX=0.5;entryY=0;entryDx=0;entryDy=0;" edge="1" parent="1" source="uuhoOP7kaAulzKjO-Wya-9" target="KURrDzS3uwJ-rzJ-qYGg-1">
          <mxGeometry width="50" height="50" relative="1" as="geometry">
            <mxPoint x="410" y="610" as="sourcePoint" />
            <mxPoint x="400" y="590" as="targetPoint" />
            <Array as="points" />
          </mxGeometry>
        </mxCell>
        <mxCell id="uuhoOP7kaAulzKjO-Wya-12" value="True" style="edgeLabel;html=1;align=center;verticalAlign=middle;resizable=0;points=[];" vertex="1" connectable="0" parent="uuhoOP7kaAulzKjO-Wya-10">
          <mxGeometry x="0.2474" y="-1" relative="1" as="geometry">
            <mxPoint x="1" y="-8" as="offset" />
          </mxGeometry>
        </mxCell>
        <mxCell id="uuhoOP7kaAulzKjO-Wya-13" value="" style="endArrow=classic;html=1;rounded=0;exitX=1;exitY=0.5;exitDx=0;exitDy=0;entryX=0.5;entryY=0;entryDx=0;entryDy=0;" edge="1" parent="1" source="uuhoOP7kaAulzKjO-Wya-9" target="KURrDzS3uwJ-rzJ-qYGg-4">
          <mxGeometry width="50" height="50" relative="1" as="geometry">
            <mxPoint x="220" y="560" as="sourcePoint" />
            <mxPoint x="320" y="790" as="targetPoint" />
            <Array as="points">
              <mxPoint x="400" y="510" />
              <mxPoint x="400" y="730" />
              <mxPoint x="320" y="730" />
              <mxPoint x="320" y="770" />
            </Array>
          </mxGeometry>
        </mxCell>
        <mxCell id="uuhoOP7kaAulzKjO-Wya-14" value="False" style="edgeLabel;html=1;align=center;verticalAlign=middle;resizable=0;points=[];" vertex="1" connectable="0" parent="uuhoOP7kaAulzKjO-Wya-13">
          <mxGeometry x="0.2605" relative="1" as="geometry">
            <mxPoint y="-137" as="offset" />
          </mxGeometry>
        </mxCell>
        <mxCell id="KURrDzS3uwJ-rzJ-qYGg-1" value="&lt;div&gt;buckets[i][k + 1] = buckets[i][k];&lt;/div&gt;&lt;div&gt;k--;&lt;/div&gt;" style="rounded=0;whiteSpace=wrap;html=1;" vertex="1" parent="1">
          <mxGeometry x="260" y="590" width="120" height="80" as="geometry" />
        </mxCell>
        <mxCell id="KURrDzS3uwJ-rzJ-qYGg-3" value="" style="endArrow=classic;html=1;rounded=0;exitX=0.5;exitY=1;exitDx=0;exitDy=0;" edge="1" parent="1" source="KURrDzS3uwJ-rzJ-qYGg-1">
          <mxGeometry width="50" height="50" relative="1" as="geometry">
            <mxPoint x="320" y="750" as="sourcePoint" />
            <mxPoint x="320" y="450" as="targetPoint" />
            <Array as="points">
              <mxPoint x="320" y="710" />
              <mxPoint x="240" y="710" />
              <mxPoint x="240" y="450" />
            </Array>
          </mxGeometry>
        </mxCell>
        <mxCell id="KURrDzS3uwJ-rzJ-qYGg-4" value="&amp;nbsp;buckets[i][k + 1] = key;" style="rounded=0;whiteSpace=wrap;html=1;" vertex="1" parent="1">
          <mxGeometry x="260" y="770" width="120" height="80" as="geometry" />
        </mxCell>
        <mxCell id="KURrDzS3uwJ-rzJ-qYGg-7" value="" style="endArrow=classic;html=1;rounded=0;exitX=0.5;exitY=1;exitDx=0;exitDy=0;entryX=0;entryY=0.5;entryDx=0;entryDy=0;" edge="1" parent="1" source="KURrDzS3uwJ-rzJ-qYGg-4" target="uuhoOP7kaAulzKjO-Wya-5">
          <mxGeometry width="50" height="50" relative="1" as="geometry">
            <mxPoint x="300" y="1000" as="sourcePoint" />
            <mxPoint x="220" y="310" as="targetPoint" />
            <Array as="points">
              <mxPoint x="320" y="890" />
              <mxPoint x="200" y="890" />
              <mxPoint x="200" y="870" />
              <mxPoint x="200" y="290" />
            </Array>
          </mxGeometry>
        </mxCell>
        <mxCell id="KURrDzS3uwJ-rzJ-qYGg-8" value="" style="endArrow=classic;html=1;rounded=0;exitX=1;exitY=0.5;exitDx=0;exitDy=0;" edge="1" parent="1" source="uuhoOP7kaAulzKjO-Wya-5">
          <mxGeometry width="50" height="50" relative="1" as="geometry">
            <mxPoint x="390" y="330" as="sourcePoint" />
            <mxPoint x="320" y="940" as="targetPoint" />
            <Array as="points">
              <mxPoint x="440" y="290" />
              <mxPoint x="440" y="910" />
              <mxPoint x="320" y="910" />
            </Array>
          </mxGeometry>
        </mxCell>
        <mxCell id="KURrDzS3uwJ-rzJ-qYGg-9" value="const T&amp;amp; elem : buckets[i]" style="shape=hexagon;perimeter=hexagonPerimeter2;whiteSpace=wrap;html=1;fixedSize=1;" vertex="1" parent="1">
          <mxGeometry x="260" y="940" width="120" height="40" as="geometry" />
        </mxCell>
        <mxCell id="mk16yvxVs5lrnNVPzVj6-1" value="" style="endArrow=classic;html=1;rounded=0;exitX=0.5;exitY=1;exitDx=0;exitDy=0;" edge="1" parent="1" source="KURrDzS3uwJ-rzJ-qYGg-9">
          <mxGeometry width="50" height="50" relative="1" as="geometry">
            <mxPoint x="310" y="1070" as="sourcePoint" />
            <mxPoint x="320" y="1020" as="targetPoint" />
          </mxGeometry>
        </mxCell>
        <mxCell id="mk16yvxVs5lrnNVPzVj6-2" value="arr[index++] = elem;" style="rounded=0;whiteSpace=wrap;html=1;" vertex="1" parent="1">
          <mxGeometry x="260" y="1020" width="120" height="80" as="geometry" />
        </mxCell>
        <mxCell id="mk16yvxVs5lrnNVPzVj6-3" value="" style="endArrow=classic;html=1;rounded=0;exitX=0.5;exitY=1;exitDx=0;exitDy=0;entryX=0;entryY=0.5;entryDx=0;entryDy=0;" edge="1" parent="1" source="mk16yvxVs5lrnNVPzVj6-2" target="KURrDzS3uwJ-rzJ-qYGg-9">
          <mxGeometry width="50" height="50" relative="1" as="geometry">
            <mxPoint x="310" y="1190" as="sourcePoint" />
            <mxPoint x="360" y="1140" as="targetPoint" />
            <Array as="points">
              <mxPoint x="320" y="1120" />
              <mxPoint x="240" y="1120" />
              <mxPoint x="240" y="960" />
            </Array>
          </mxGeometry>
        </mxCell>
        <mxCell id="mk16yvxVs5lrnNVPzVj6-4" value="" style="endArrow=classic;html=1;rounded=0;exitX=1;exitY=0.5;exitDx=0;exitDy=0;entryX=0;entryY=0.5;entryDx=0;entryDy=0;" edge="1" parent="1" source="KURrDzS3uwJ-rzJ-qYGg-9" target="uuhoOP7kaAulzKjO-Wya-1">
          <mxGeometry width="50" height="50" relative="1" as="geometry">
            <mxPoint x="470" y="1100" as="sourcePoint" />
            <mxPoint x="180" y="370" as="targetPoint" />
            <Array as="points">
              <mxPoint x="420" y="960" />
              <mxPoint x="420" y="1140" />
              <mxPoint x="320" y="1140" />
              <mxPoint x="180" y="1140" />
              <mxPoint x="180" y="210" />
            </Array>
          </mxGeometry>
        </mxCell>
        <mxCell id="mk16yvxVs5lrnNVPzVj6-5" value="" style="endArrow=classic;html=1;rounded=0;exitX=1;exitY=0.5;exitDx=0;exitDy=0;" edge="1" parent="1" source="uuhoOP7kaAulzKjO-Wya-1">
          <mxGeometry width="50" height="50" relative="1" as="geometry">
            <mxPoint x="550" y="410" as="sourcePoint" />
            <mxPoint x="320" y="1200" as="targetPoint" />
            <Array as="points">
              <mxPoint x="460" y="210" />
              <mxPoint x="460" y="1160" />
              <mxPoint x="320" y="1160" />
            </Array>
          </mxGeometry>
        </mxCell>
        <mxCell id="mk16yvxVs5lrnNVPzVj6-7" value="Кінець" style="rounded=1;whiteSpace=wrap;html=1;" vertex="1" parent="1">
          <mxGeometry x="260" y="1200" width="120" height="40" as="geometry" />
        </mxCell>
        <mxCell id="qmCKlX4YaGnEAxf0xMxg-1" value="2" style="shape=offPageConnector;whiteSpace=wrap;html=1;size=0.3333333333333333;" vertex="1" parent="1">
          <mxGeometry x="505" width="30" height="30" as="geometry" />
        </mxCell>
        <mxCell id="qmCKlX4YaGnEAxf0xMxg-3" value="" style="endArrow=none;html=1;rounded=0;" edge="1" parent="1">
          <mxGeometry width="50" height="50" relative="1" as="geometry">
            <mxPoint x="460" y="1160" as="sourcePoint" />
            <mxPoint x="520" y="30" as="targetPoint" />
            <Array as="points">
              <mxPoint x="520" y="1160" />
            </Array>
          </mxGeometry>
        </mxCell>
      </root>
    </mxGraphModel>
  </diagram>
</mxfile>
